<?xml version="1.0" encoding="UTF-8"?>
<svg width="45px" height="40px" viewBox="0 0 45 40" version="1.1" xmlns="http://www.w3.org/2000/svg" xmlns:xlink="http://www.w3.org/1999/xlink">
    <!-- Generator: Sketch 48.2 (47327) - http://www.bohemiancoding.com/sketch -->
    <title>QuartzFreeVectorPack2</title>
    <desc>Created with Sketch.</desc>
    <defs></defs>
    <g id="Artboard-5" stroke="none" stroke-width="1" fill="none" fill-rule="evenodd" transform="translate(-191.000000, -251.000000)">
        <g id="QuartzFreeVectorPack2" transform="translate(190.000000, 251.000000)" fill-rule="nonzero">
            <g id="XMLID_18_" transform="translate(16.000000, 0.000000)">
                <g id="XMLID_10_" transform="translate(0.868852, 0.402299)">
                    <polygon id="XMLID_17_" fill="#300812" points="28.3586066 11.2559387 15.4487705 0.637931034 14.6885246 0.0141762452 13.7704918 0.425287356 9.66803279 2.26819923 9.49590164 2.33908046 9.35245902 2.45249042 5.92418033 5.06091954 5.09221311 5.40114943 4.70491803 5.57126437 4.44672131 5.89731801 2.52459016 8.39233716 2.33811475 8.61915709 2.26639344 8.91685824 0.989754098 13.354023 0.229508197 16.0049808 0.114754098 16.416092 0.229508197 16.8413793 2.33811475 24.6241379 2.52459016 25.3613027 3.22745902 25.6590038 14.6168033 30.5639847 14.932377 30.7057471 15.2622951 30.7057471 16.897541 30.7057471 17.2704918 30.7057471 17.6147541 30.5356322 19.5512295 29.5716475 19.7807377 29.4582375 19.9672131 29.2739464 27.5696721 21.7747126 27.9569672 21.3777778 28.0143443 20.8390805 28.272541 18.443295 28.9180328 12.6310345 29.0040984 11.794636"></polygon>
                    <g id="XMLID_38_" transform="translate(1.721311, 1.842912)">
                        <polygon id="XMLID_28_" fill="#701519" points="13.5409836 27.289272 2.15163934 22.3842912 15.1762295 27.289272"></polygon>
                        <polygon id="XMLID_27_" fill="#5A1422" points="2.98360656 22.6961686 2.98360656 22.6961686 2.15163934 22.3842912 0.0430327869 14.5873563 0.760245902 16.245977"></polygon>
                        <g id="XMLID_25_" transform="translate(1.721311, 18.429119)">
                            <polygon id="XMLID_26_" fill="#E64E59" points="3.22745902 2.46666667 3.22745902 2.46666667 4.76229508 0 8.04713115 0.623754789 15.4057377 7.89616858 13.454918 8.86015326 8.60655738 7.03141762 7.05737705 4.79157088"></polygon>
                            <polygon id="XMLID_31_" fill="#B81923" points="3.22745902 2.46666667 7.05737705 4.79157088 8.60655738 7.03141762 1.93647541 4.52222222"></polygon>
                            <polygon id="XMLID_33_" fill="#94191E" points="3.22745902 2.46666667 1.93647541 4.52222222 1.26229508 4.26704981 0 0.623754789 0.344262295 0.453639847"></polygon>
                        </g>
                        <polygon id="XMLID_41_" fill="#BD3A4A" points="18.0163934 22.4977011 17.1270492 26.3252874 13.5122951 22.7528736"></polygon>
                        <polygon id="XMLID_42_" fill="#741520" points="24.7151639 18.8260536 17.1270492 26.3252874 24.9733607 16.4302682"></polygon>
                        <polygon id="XMLID_39_" fill="#E14E57" points="21.1864754 12.4042146 25.6188525 10.6180077 24.9733607 16.4302682 23.079918 13.1697318"></polygon>
                        <g id="XMLID_29_" transform="translate(9.897541, 0.000000)">
                            <polygon id="XMLID_32_" fill="#F4C0B6" points="2.81147541 0 15.7213115 10.6180077 11.2889344 12.4042146 0.0860655738 2.33908046"></polygon>
                            <polygon id="XMLID_43_" fill="#BC1828" points="8.11885246 22.4977011 8.11885246 22.4977011 8.11885246 22.4977011 11.2889344 12.4042146 13.182377 13.1697318 15.0758197 16.4302682 7.2295082 26.3252874"></polygon>
                        </g>
                        <polygon id="XMLID_35_" fill="#BB1F30" points="5.00614754 4.59310345 8.59221311 1.85708812 12.7090164 0 9.98360656 2.33908046 9.98360656 2.33908046 9.98360656 2.33908046"></polygon>
                        <g id="XMLID_36_" transform="translate(0.000000, 2.268199)">
                            <polygon id="XMLID_37_" fill="#6E151E" points="0.803278689 9.66819923 2.06557377 5.23103448 3.98770492 2.73601533 5.00614754 2.32490421 2.33811475 5.69885057"></polygon>
                            <g id="XMLID_30_">
                                <polygon id="XMLID_34_" fill="#C21718" points="6.48360656 16.1609195 4.94877049 18.6275862 2.06557377 16.6145594 1.72131148 16.7846743 0.760245902 13.9777778 4.7192623 12.0072797"></polygon>
                                <g id="XMLID_24_">
                                    <g id="XMLID_23_" transform="translate(0.717213, 0.000000)">
                                        <polygon id="XMLID_44_" fill="#EB6865" points="8.76434426 2.33908046 9.26639344 0.0708812261 9.26639344 0.0708812261 20.4692623 10.1360153 8.64959016 4.46551724"></polygon>
                                        <polygon id="XMLID_46_" fill="#9F1B26" points="8.76434426 2.33908046 8.64959016 4.46551724 0.0860655738 9.66819923 0.0860655738 9.66819923 1.62090164 5.69885057 4.28893443 2.32490421 9.26639344 0.0708812261 9.26639344 0.0708812261 9.26639344 0.0708812261"></polygon>
                                        <polygon id="XMLID_47_" fill="#F19389" points="17.2991803 20.2295019 12.795082 20.4846743 9.05122951 16.7846743 5.76639344 16.1609195 4.00204918 12.0072797 8.64959016 4.46551724 20.4692623 10.1360153"></polygon>
                                    </g>
                                    <polygon id="XMLID_45_" fill="#8F1924" points="4.7192623 12.0072797 4.7192623 12.0072797 0.760245902 13.9777778 0.0430327869 12.3191571 0.803278689 9.66819923 9.36680328 4.46551724"></polygon>
                                </g>
                            </g>
                        </g>
                    </g>
                </g>
            </g>
            <g id="XMLID_16_" transform="translate(0.000000, 6.000000)">
                <g id="XMLID_9_" transform="translate(0.913043, 0.648069)">
                    <polygon id="XMLID_124_" fill="#0C0C1E" points="24.884058 1.0944206 24.0869565 0.0729613734 22.9275362 0.656652361 12.8550725 5.69098712 2.34782609 5.32618026 0.0869565217 5.25321888 0.768115942 7.42746781 5.75362319 23.4206009 6.05797101 24.3982833 7.07246377 24.544206 24.4347826 26.9227468 25.6376812 27.0832618 26.115942 25.9742489 32.3043478 11.8781116 32.6956522 10.9733906 32.1014493 10.2145923"></polygon>
                    <g id="XMLID_60_" transform="translate(2.173913, 2.042918)">
                        <polygon id="XMLID_61_" fill="#82A0C6" points="28.6666667 9.17854077 22.4782609 23.2746781 23.3623188 13.8480687"></polygon>
                        <g id="XMLID_48_" transform="translate(5.072464, 0.000000)">
                            <polygon id="XMLID_50_" fill="#1F1F3E" points="17.4057971 23.2746781 0.0434782609 20.8961373 18.2898551 13.8480687"></polygon>
                            <polygon id="XMLID_63_" fill="#FAFEFD" points="18.2898551 13.8480687 16.3913043 0.0583690987 23.5942029 9.17854077"></polygon>
                        </g>
                        <g id="XMLID_54_" transform="translate(0.000000, 4.815451)">
                            <polygon id="XMLID_59_" fill="#367DAB" points="23.3623188 9.03261803 5.11594203 16.0806867 12.6231884 6.52274678"></polygon>
                            <g id="XMLID_58_">
                                <polygon id="XMLID_65_" fill="#1E479B" points="5.11594203 16.0806867 0.115942029 0.0875536481 12.6231884 6.52274678"></polygon>
                                <polygon id="XMLID_67_" fill="#70A8CA" points="12.6231884 6.52274678 0.115942029 0.0875536481 0.115942029 0.0875536481 11.0289855 0.452360515"></polygon>
                            </g>
                        </g>
                        <g id="XMLID_57_" transform="translate(11.014493, 0.000000)">
                            <polygon id="XMLID_64_" fill="#91D1E1" points="0.0144927536 5.26781116 10.4492754 0.0583690987 1.60869565 11.3381974"></polygon>
                            <polygon id="XMLID_68_" fill="#203C7C" points="12.3478261 13.8480687 1.60869565 11.3381974 10.4492754 0.0583690987 10.4492754 0.0583690987"></polygon>
                        </g>
                    </g>
                </g>
            </g>
            <g id="XMLID_14_" transform="translate(1.000000, 15.000000)">
                <g id="XMLID_11_" transform="translate(0.558405, 0.912621)">
                    <polygon id="XMLID_128_" fill="#29143D" points="40.5270655 9.6407767 40.4273504 9.17475728 40.0712251 8.83980583 31.3960114 0.509708738 30.9401709 0.0873786408 30.3133903 0.0873786408 26.0826211 0.0873786408 25.5128205 0.0873786408 25.0712251 0.451456311 19.7720798 4.98058252 14.7150997 9.29126214 5.48433048 13.2961165 5.0997151 13.4708738 4.84330484 13.8203883 1.26780627 18.6990291 0 20.4174757 1.96581197 21.1747573 8.91737892 23.8398058 9.33048433 24 9.75783476 23.9126214 19.1737892 22.1504854 27.2649573 20.9271845 35.7834758 19.9368932 36.0968661 19.907767 36.3675214 19.7475728 41.0683761 17.0825243 42.1082621 16.4854369 41.8376068 15.3058252"></polygon>
                    <g id="XMLID_109_" transform="translate(2.421652, 1.601942)">
                        <g id="XMLID_49_">
                            <polygon id="XMLID_110_" fill="#E9C7E0" points="23.6039886 8.41747573 28.6324786 5.51941748 27.8917379 0.0873786408 23.6609687 0.0873786408 18.3618234 4.61650485 18.3618234 4.61650485"></polygon>
                            <polygon id="XMLID_112_" fill="#563293" points="29.3019943 10.4126214 28.6324786 5.51941748 23.6039886 8.41747573 21.980057 15.7427184 24.6296296 17.7378641 33.1766382 16.7330097"></polygon>
                            <polygon id="XMLID_114_" fill="#482861" points="3.68945869 13.1796117 0.0997150997 18.0728155 7.05128205 20.723301 6.66666667 16.4563107"></polygon>
                            <polygon id="XMLID_113_" fill="#8669AB" points="23.6039886 8.41747573 18.3618234 4.61650485 13.1339031 9.07281553 21.980057 15.7427184"></polygon>
                            <polygon id="XMLID_108_" fill="#CBB4D6" points="13.1339031 9.07281553 3.68945869 13.1796117 21.980057 15.7427184"></polygon>
                            <g id="XMLID_40_" transform="translate(3.561254, 13.106796)">
                                <polygon id="XMLID_115_" fill="#9C77B4" points="0.128205128 0.072815534 3.10541311 3.34951456 18.4188034 2.63592233"></polygon>
                                <polygon id="XMLID_117_" fill="#683E92" points="18.4188034 2.63592233 3.10541311 3.34951456 3.49002849 7.61650485 12.9344729 5.83980583 21.0683761 4.63106796"></polygon>
                            </g>
                        </g>
                        <g id="XMLID_118_" transform="translate(27.777778, 0.000000)">
                            <polygon id="XMLID_122_" fill="#B692C2" points="0.113960114 0.0873786408 1.52421652 10.4126214 8.8034188 8.41747573"></polygon>
                            <polygon id="XMLID_123_" fill="#866AAB" points="8.8034188 8.41747573 1.52421652 10.4126214 5.3988604 16.7330097 10.0997151 14.0679612"></polygon>
                        </g>
                    </g>
                </g>
            </g>
        </g>
    </g>
</svg>